<?xml version="1.0" standalone="no"?>
<!DOCTYPE svg PUBLIC "-//W3C//DTD SVG 20010904//EN"
 "http://www.w3.org/TR/2001/REC-SVG-20010904/DTD/svg10.dtd">
<svg version="1.0" xmlns="http://www.w3.org/2000/svg"
 width="1024.000000pt" height="1024.000000pt" viewBox="0 0 1024.000000 1024.000000"
 preserveAspectRatio="xMidYMid meet">
<metadata>
Created by potrace 1.11, written by Peter Selinger 2001-2013
</metadata>
<g transform="translate(0.000000,1024.000000) scale(0.100000,-0.100000)"
fill="#000000" stroke="none">
<path d="M2845 9593 c-625 -20 -987 -114 -1326 -342 -276 -185 -513 -455 -654
-745 -133 -271 -193 -564 -215 -1046 -13 -284 -13 -4405 0 -4685 17 -364 55
-610 126 -825 178 -537 640 -999 1175 -1174 176 -58 354 -90 639 -117 173 -16
4373 -25 4790 -10 438 16 669 48 909 127 449 147 860 506 1076 939 145 290
202 568 225 1093 16 351 8 4701 -9 4862 -39 380 -89 590 -198 820 -174 369
-505 704 -878 886 -264 129 -568 192 -1020 213 -158 7 -4431 11 -4640 4z
m4190 -1352 c49 -22 98 -76 116 -128 12 -32 14 -436 14 -2388 0 -2237 -1
-2353 -18 -2414 -71 -250 -261 -439 -505 -502 -67 -17 -112 -19 -431 -19 -406
0 -443 5 -580 71 -71 35 -101 58 -176 133 -149 149 -205 288 -205 506 0 140
17 216 72 330 33 69 57 101 132 175 73 73 107 99 176 133 142 69 176 74 580
76 331 3 358 4 401 23 63 28 115 77 147 137 l27 51 3 1073 c1 703 -1 1087 -8
1111 -27 100 -112 165 -215 164 -55 0 -2188 -417 -2275 -444 -94 -30 -168
-100 -218 -206 l-27 -58 -5 -1675 c-5 -1594 -6 -1678 -23 -1730 -44 -130 -127
-252 -228 -337 -62 -51 -210 -126 -284 -143 -73 -17 -650 -25 -762 -10 -338
44 -578 287 -615 624 -39 348 159 660 487 767 66 22 89 23 450 28 l380 6 57
28 c64 32 111 80 142 146 l21 46 5 1805 5 1805 28 56 c31 64 103 136 167 169
31 16 417 96 1354 282 721 142 1385 274 1476 292 192 39 277 44 335 17z"/>
</g>
</svg>
